<?xml version="1.0" encoding="utf-8"?>
<!-- Generator: Adobe Illustrator 24.0.1, SVG Export Plug-In . SVG Version: 6.00 Build 0)  -->
<svg version="1.1" id="Layer_1" xmlns="http://www.w3.org/2000/svg" xmlns:xlink="http://www.w3.org/1999/xlink" x="0px" y="0px"
	 viewBox="0 0 321 321" style="enable-background:new 0 0 321 321;" xml:space="preserve">
<style type="text/css">
	.st0{fill:#FFFFFF;stroke:#000000;}
	.st1{enable-background:new    ;}
	.st2{fill:none;stroke:#000000;stroke-width:2;stroke-miterlimit:10;}
	.st3{stroke:#000000;stroke-width:2;stroke-miterlimit:10;}
</style>
<g>
	<ellipse pointer-events="all" class="st0" cx="200.5" cy="40.5" rx="40" ry="40"/>
	<g transform="translate(190.5,19.5)">
		<g class="st1">
			<path d="M9,13.6l-3.8,1.2l-1-2.5l6.1-3.3H13v22.4H9V13.6z"/>
		</g>
	</g>
	<ellipse pointer-events="all" class="st0" cx="120.5" cy="160.5" rx="40" ry="40"/>
	<g transform="translate(110.5,139.5)">
		<g class="st1">
			<path d="M3.6,28.5c2.9-2.8,5-4.8,6.2-6.2s2.2-2.6,2.9-3.7s1-2.3,1-3.5c0-0.9-0.3-1.7-0.9-2.3s-1.4-0.8-2.4-0.8
				c-1.5,0-2.7,0.5-3.6,1.4c-0.2,0.2-0.4,0.4-0.4,0.6s-0.1,0.3-0.1,0.5l0,0.2l-0.2,0.3l-0.2-0.2l-2.7-2c0.9-1.4,1.9-2.5,3.2-3.2
				s2.7-1.1,4.2-1.1c1.3,0,2.5,0.3,3.6,0.8s1.9,1.3,2.5,2.3s0.9,2.1,0.9,3.4c0,1.3-0.3,2.5-0.9,3.7s-1.4,2.3-2.4,3.4
				s-2.4,2.6-4.3,4.5l-1.4,1.4h7.3c0.4,0,0.7,0,0.9-0.1s0.3-0.1,0.5-0.3h0.4v3.7H3.6V28.5z"/>
		</g>
	</g>
	<ellipse pointer-events="all" class="st0" cx="280.5" cy="160.5" rx="40" ry="40"/>
	<g transform="translate(270.5,139.5)">
		<g class="st1">
			<path d="M2.8,29.2l1.7-3.4l0.1-0.3L5,25.7c0,0.1,0,0.1,0.1,0.2s0,0.1,0,0.2c0,0.2,0,0.4,0.1,0.6s0.2,0.3,0.3,0.5
				c0.5,0.5,1.1,0.9,1.8,1.2s1.6,0.4,2.5,0.4c1.1,0,2-0.3,2.6-1s0.9-1.5,0.9-2.6c0-1.2-0.3-2.1-1-2.7s-1.8-0.9-3.4-0.9
				c-0.6,0-1.2,0-1.9,0.1v-3.3c0.2,0,0.4,0,0.8,0c1.9,0,3.1-0.3,3.9-0.9s1.1-1.4,1.1-2.5c0-0.9-0.3-1.6-0.8-2.1S10.8,12,9.8,12
				c-0.8,0-1.6,0.1-2.2,0.4s-1.4,0.8-2.2,1.5l-2.3-2.3c0.9-1,1.9-1.8,3-2.3s2.3-0.7,3.6-0.7c1.4,0,2.6,0.3,3.6,0.8s1.9,1.2,2.5,2.1
				s0.9,1.9,0.9,3c0,1.2-0.3,2.2-0.9,3.1s-1.4,1.5-2.2,1.9c1,0.4,1.9,1,2.6,2s1.1,2.2,1.1,3.7c0,1.3-0.3,2.5-0.9,3.5
				s-1.5,1.9-2.6,2.5s-2.5,0.9-4,0.9C6.8,32.2,4.4,31.2,2.8,29.2z"/>
		</g>
	</g>
	<ellipse pointer-events="all" class="st0" cx="40.5" cy="280.5" rx="40" ry="40"/>
	<g transform="translate(30.5,259.5)">
		<g class="st1">
			<path d="M11.3,27H2.7v-2.5l9.7-14.4h2.9v13.5h3V27h-3v5.5h-4.1V27z M11.4,23.7V17l-4.5,6.7H11.4z"/>
		</g>
	</g>
	<ellipse pointer-events="all" class="st0" cx="200.5" cy="280.5" rx="40" ry="40"/>
	<g transform="translate(190.5,259.5)">
		<g class="st1">
			<path d="M3.4,28.9l3-2.3l0.3-0.2l0.2,0.3c0,0.1,0,0.2,0,0.3c0,0.3,0.1,0.7,0.4,1c0.4,0.5,0.8,0.9,1.3,1.1s1.1,0.4,1.8,0.4
				c0.7,0,1.3-0.2,1.8-0.5s1-0.8,1.3-1.5s0.5-1.5,0.5-2.4c0-1.4-0.3-2.5-0.9-3.3s-1.5-1.2-2.5-1.2c-0.7,0-1.3,0.2-1.9,0.5
				S7.6,22.2,7.1,23l-2.6-1.1l0.8-11.8h12.1v3.4H8.9l-0.3,4.3c0.9-0.3,1.7-0.4,2.5-0.4c1.4,0,2.7,0.3,3.7,0.9s1.9,1.5,2.4,2.7
				s0.9,2.6,0.9,4.2c0,1.6-0.3,2.9-0.9,4.1s-1.5,2.1-2.6,2.8s-2.4,1-3.9,1C7.3,33.2,4.9,31.8,3.4,28.9z"/>
		</g>
	</g>
	<path pointer-events="stroke" class="st2" d="M62.6,247.2l31.1-46.5"/>
	<path pointer-events="all" class="st3" d="M97.1,195.6l-1.1,8.9l-2.2-3.9l-4.4-0.6L97.1,195.6z"/>
	<path pointer-events="stroke" class="st2" d="M178.4,247.2l-31.1-46.5"/>
	<path pointer-events="all" class="st3" d="M143.9,195.6l7.8,4.4l-4.4,0.6l-2.2,3.9L143.9,195.6z"/>
	<path pointer-events="stroke" class="st2" d="M142.6,127.2l31.1-46.5"/>
	<path pointer-events="all" class="st3" d="M177.1,75.6l-1.1,8.9l-2.2-3.9l-4.4-0.6L177.1,75.6z"/>
	<path pointer-events="stroke" class="st2" d="M258.4,127.2l-31.1-46.5"/>
	<path pointer-events="all" class="st3" d="M223.9,75.6l7.8,4.4l-4.4,0.6l-2.2,3.9L223.9,75.6z"/>
</g>
</svg>
